<svg width="78" height="78" viewBox="0 0 78 78" fill="none" xmlns="http://www.w3.org/2000/svg">
<path d="M59.9407 34.2697C60.2742 35.7745 60.45 37.3387 60.45 38.944C60.45 50.8075 50.8465 60.4248 39 60.4248C27.1535 60.4248 17.55 50.8075 17.55 38.944C17.55 28.0914 25.5866 19.1186 36.0251 17.6682V0C15.8758 1.522 0 18.3764 0 38.944C0 60.514 17.4609 78 39 78C60.5391 78 78 60.514 78 38.944C78 35.4439 77.5402 32.0514 76.6779 28.8236L59.9407 34.2697Z" fill="white"/>
<path d="M74.7022 23.2016L57.8462 28.6863C56.3296 25.8918 54.2038 23.4544 51.6079 21.5657C48.7519 19.4877 45.441 18.1569 41.9748 17.6708V0.00179244C49.1557 0.551851 56.0658 3.08504 61.9236 7.34706L65.8827 10.6489C66.3065 11.0527 66.7209 11.4657 67.1254 11.8875C70.2686 15.1634 72.8465 18.9871 74.7022 23.2016Z" fill="#30F3F3"/>
</svg>
