<svg width="204" height="24" viewBox="0 0 204 24" fill="none" xmlns="http://www.w3.org/2000/svg">
<path d="M196.036 0.379517C198.44 0.379517 200.264 0.91721 201.508 1.9926C202.752 3.06799 203.374 4.50184 203.374 6.29415C203.374 6.8213 203.332 7.29574 203.248 7.71746C202.974 9.23565 202.32 10.5746 201.287 11.7344C200.254 12.873 198.915 13.6954 197.27 14.2014L200.623 22.7729H192.905L190.09 14.7391L188.667 22.7729H181.645L185.599 0.379517H196.036ZM190.912 10.058H193.696C194.371 10.058 194.898 9.91041 195.277 9.6152C195.678 9.29891 195.941 8.81393 196.068 8.16026C196.089 8.05483 196.1 7.91778 196.1 7.74909C196.1 7.2852 195.952 6.92673 195.657 6.6737C195.362 6.39958 194.929 6.26252 194.36 6.26252H191.577L190.912 10.058Z" fill="white"/>
<path d="M167.694 22.9943C165.796 22.9943 164.13 22.6042 162.697 21.8241C161.263 21.0439 160.156 19.9474 159.375 18.5346C158.595 17.1008 158.205 15.4666 158.205 13.6321C158.205 10.9542 158.753 8.59256 159.85 6.54722C160.967 4.48079 162.517 2.87824 164.499 1.7396C166.503 0.579866 168.801 0 171.395 0C173.334 0 175.021 0.390091 176.455 1.17027C177.91 1.92937 179.028 3.0153 179.808 4.42807C180.588 5.81975 180.978 7.43283 180.978 9.26731C180.978 11.9242 180.419 14.2963 179.302 16.3839C178.205 18.4714 176.645 20.095 174.621 21.2547C172.618 22.4145 170.309 22.9943 167.694 22.9943ZM168.769 16.4471C169.866 16.4471 170.815 16.1625 171.616 15.5931C172.438 15.0027 173.06 14.2331 173.482 13.2842C173.904 12.3142 174.115 11.2705 174.115 10.1529C174.115 8.9932 173.798 8.09704 173.166 7.46446C172.554 6.81079 171.669 6.48396 170.509 6.48396C169.412 6.48396 168.453 6.76862 167.631 7.33794C166.808 7.90727 166.176 8.67691 165.733 9.64686C165.311 10.5957 165.1 11.629 165.1 12.7465C165.1 13.9062 165.406 14.8129 166.018 15.4666C166.65 16.1203 167.567 16.4471 168.769 16.4471Z" fill="white"/>
<path d="M158.768 0.379517L157.787 5.94623H151.841L148.868 22.7729H141.846L144.819 5.94623H138.936L139.917 0.379517H158.768Z" fill="white"/>
<path d="M129.058 19.3886H121.594L119.886 22.7729H112.516L124.662 0.379517H132.759L136.966 22.7729H129.564L129.058 19.3886ZM128.299 14.1065L127.382 7.8756L124.251 14.1065H128.299Z" fill="white"/>
<path d="M102.487 17.2522H112.016L111.067 22.5659H94.5164L98.47 0.172485H105.492L102.487 17.2522Z" fill="white"/>
<path d="M82.5075 0.379639L80.2935 12.9996C80.2302 13.337 80.1986 13.6849 80.1986 14.0434C80.1986 14.7603 80.3884 15.3296 80.7679 15.7514C81.1475 16.152 81.7484 16.3523 82.5708 16.3523C83.5829 16.3523 84.3842 16.0571 84.9746 15.4667C85.565 14.8552 85.9551 14.0328 86.1448 12.9996L88.3589 0.379639H95.3489L93.1349 12.9996C92.7553 15.1926 91.9962 17.0376 90.8576 18.5347C89.74 20.0318 88.3589 21.1494 86.7142 21.8874C85.0905 22.6254 83.2982 22.9944 81.3372 22.9944C78.828 22.9944 76.8248 22.3407 75.3277 21.0334C73.8306 19.705 73.082 17.8178 73.082 15.3718C73.082 14.5916 73.1558 13.8009 73.3034 12.9996L75.5175 0.379639H82.5075Z" fill="white"/>
<path d="M70.8477 5.44294C69.4803 3.33169 67.4636 1.72225 65.1016 0.857298C62.7396 -0.00765419 60.1604 -0.0812187 57.753 0.647692C55.3455 1.3766 53.2403 2.86847 51.7548 4.89835C50.2693 6.92822 49.484 9.38604 49.5174 11.9012C49.5507 14.4164 50.4009 16.8525 51.9397 18.8422C53.4786 20.832 55.6226 22.2675 58.0485 22.9323C60.4745 23.5971 63.0508 23.4552 65.389 22.5279C67.7272 21.6006 69.7006 19.9383 71.0115 17.7915L65.3382 14.3271C64.7787 15.2434 63.9364 15.9529 62.9384 16.3487C61.9405 16.7444 60.8409 16.805 59.8054 16.5213C58.77 16.2375 57.8549 15.6248 57.1981 14.7756C56.5413 13.9263 56.1785 12.8865 56.1642 11.813C56.15 10.7395 56.4852 9.69052 57.1192 8.82414C57.7532 7.95776 58.6518 7.32101 59.6793 7.00991C60.7068 6.6988 61.8076 6.7302 62.8158 7.09937C63.8239 7.46854 64.6847 8.15547 65.2683 9.05658L70.8477 5.44294Z" fill="white"/>
<path d="M49.9252 0.379639L48.9447 5.94635H42.9985L40.0253 22.773H33.0037L35.9768 5.94635H30.0938L31.0743 0.379639H49.9252Z" fill="white"/>
<path d="M29.1682 0.379639L25.2145 22.773H18.1929L22.1465 0.379639H29.1682Z" fill="white"/>
<path d="M20.0317 0.105469L19.0382 5.74032H10.128L9.58319 8.87792L18.4503 8.87792L17.4888 14.2246L8.62166 14.2246L7.11527 22.773H0L4.00635 0.105469H20.0317Z" fill="white"/>
</svg>
